<svg width="253" height="34" viewBox="0 0 253 34" fill="none" xmlns="http://www.w3.org/2000/svg">
<path d="M1.70684e-07 16.872C-0.000475324 13.5353 0.99254 10.2734 2.85346 7.49886C4.71438 4.7243 7.35961 2.56171 10.4546 1.28459C13.5496 0.00747076 16.9553 -0.326806 20.2411 0.324036C23.5268 0.974877 26.545 2.5816 28.9139 4.941C31.2828 7.30041 32.8959 10.3065 33.5494 13.5791C34.2029 16.8517 33.8672 20.2438 32.585 23.3265C31.3027 26.4091 29.1315 29.0437 26.3458 30.8972C23.5601 32.7507 20.2851 33.7397 16.935 33.7392C12.4437 33.7386 8.13662 31.9613 4.96084 28.7982C1.78506 25.6352 0.000637632 21.3453 1.70684e-07 16.872H1.70684e-07ZM16.935 31.8475C19.9115 31.8471 22.8211 30.9674 25.2956 29.3197C27.7701 27.672 29.6984 25.3304 30.8366 22.5911C31.9748 19.8517 32.2718 16.8377 31.6899 13.9303C31.1081 11.0228 29.6735 8.35253 27.5678 6.2572C25.462 4.16188 22.7796 2.73564 19.86 2.15889C16.9403 1.58215 13.9144 1.8808 11.1652 3.01707C8.41591 4.15335 6.06676 6.0762 4.41485 8.5424C2.76294 11.0086 1.88249 13.9074 1.88487 16.872C1.88805 20.8453 3.47517 24.6547 6.29733 27.4629C9.11949 30.2711 12.9457 31.8482 16.935 31.8475Z" fill="#00408B"/>
<path d="M16.9375 3.74609C14.3323 3.74562 11.7854 4.51462 9.61892 5.95584C7.45246 7.39706 5.76374 9.44578 4.76631 11.8429C3.76888 14.2401 3.50754 16.878 4.01534 19.423C4.52313 21.9681 5.77726 24.306 7.61912 26.1412C9.46098 27.9764 11.8079 29.2263 14.363 29.733C16.9181 30.2397 19.5667 29.9804 21.9738 28.9878C24.3809 27.9953 26.4385 26.314 27.8863 24.1568C29.3341 21.9995 30.1071 19.4631 30.1076 16.8682C30.1076 13.3889 28.7202 10.0519 26.2505 7.59117C23.7807 5.13043 20.4309 3.74736 16.9375 3.74609ZM25.3137 20.9246C25.3114 21.7001 25.125 22.4641 24.7697 23.1542C24.4144 23.8442 23.9004 24.4409 23.2695 24.8953C22.6385 25.3498 21.9087 25.6493 21.1394 25.7692C20.3702 25.8892 19.5833 25.8263 18.8432 25.5856C18.103 25.345 17.4304 24.9334 16.8804 24.3845C16.3303 23.8356 15.9184 23.165 15.6782 22.4273C15.438 21.6896 15.3764 20.9058 15.4983 20.1398C15.6202 19.3739 15.9223 18.6475 16.3798 18.02L14.3675 15.2687H12.3263V18.6522H10.1626V8.81296H15.572C16.3135 8.81155 17.033 9.06401 17.6099 9.52805C18.1867 9.99209 18.586 10.6395 18.7406 11.3618C18.8953 12.0841 18.7961 12.8374 18.4595 13.4955C18.1229 14.1536 17.5694 14.6765 16.8919 14.9765L18.0531 16.5713C19.0516 16.042 20.2023 15.8699 21.3128 16.0839C22.4234 16.2979 23.4266 16.885 24.1549 17.747L22.5368 19.1071C22.1464 18.6414 21.6153 18.3137 21.0226 18.1729C20.43 18.0321 19.8076 18.0857 19.2481 18.3258C18.6885 18.5659 18.2218 18.9796 17.9175 19.5052C17.6131 20.0309 17.4874 20.6404 17.5589 21.243C17.6305 21.8456 17.8957 22.409 18.3148 22.8494C18.7339 23.2898 19.2847 23.5835 19.885 23.6869C20.4854 23.7902 21.1032 23.6977 21.6464 23.423C22.1897 23.1484 22.6293 22.7063 22.8999 22.1626H20.6063V20.29H25.3113L25.3137 20.9246Z" fill="#00408B"/>
<path d="M15.3049 10.6953H12.3262V13.3916H15.3049C15.6636 13.3916 16.0076 13.2497 16.2612 12.9971C16.5148 12.7445 16.6573 12.4019 16.6573 12.0446C16.6573 11.6874 16.5148 11.3448 16.2612 11.0922C16.0076 10.8396 15.6636 10.6977 15.3049 10.6977" fill="#00408B"/>
<path d="M153.002 24.5204C154.027 24.1852 154.385 24.0008 154.572 23.1675C154.714 22.4683 154.789 16.5059 154.789 15.1817C154.789 11.8006 154.765 11.2522 154.695 10.6536C154.551 9.48504 153.599 9.45631 153.096 9.43476L153.195 8.7571C153.527 8.7571 154.931 8.78344 155.214 8.78344C155.498 8.78344 155.902 8.72837 156.712 8.65174C157.522 8.57511 158.354 8.49609 158.635 8.49609C162.535 8.49609 164.03 10.8906 164.03 12.8422C164.03 14.7938 162.232 16.3359 160.352 17.0015C163.016 22.5665 164.413 25.1717 167.665 25.2627V25.8614C165.365 25.9093 162.037 25.9093 158.133 17.3535C157.657 17.3434 157.182 17.3074 156.71 17.2458C156.683 17.8205 156.659 18.2898 156.659 19.7457C156.659 20.6029 156.659 23.1986 156.967 23.7494C157.275 24.2451 158.227 24.4797 158.561 24.53L158.467 25.1526C157.705 25.0496 157.265 25.0281 156.897 24.9993C156.529 24.9706 156.137 24.973 155.471 24.973C154.498 24.973 154.75 24.973 153 25.1526V24.53L153.002 24.5204ZM158.289 9.16417C157.053 9.16417 156.931 9.62393 156.847 11.2857C156.755 13.7593 156.755 14.2957 156.779 16.5538C157.197 16.6103 157.619 16.6247 158.039 16.5969C159.181 16.5969 161.989 16.4316 161.989 13.096C161.989 11.2163 161.205 9.1067 158.328 9.1067" fill="#00408B"/>
<path d="M170.452 24.462C171.084 24.3758 171.914 24.3015 172.173 23.813C172.524 23.1234 172.524 19.7686 172.524 18.6767C172.524 17.7428 172.524 13.9379 172.245 13.3536C172.156 13.1501 172.005 12.8077 170.603 12.8077L170.618 12.2617C170.858 12.2617 171.579 12.2809 172.245 12.3C172.911 12.3192 173.56 12.3599 173.649 12.3599C174.111 12.3599 175.741 12.3 176.222 12.2809V12.9059C175.318 12.9059 175.02 12.9705 174.82 13.21C174.373 13.7559 174.373 17.2376 174.373 18.272C174.373 19.2035 174.373 23.0276 174.486 23.6119C174.599 24.1962 174.726 24.3303 176.111 24.4644L176.075 24.9672L173.137 24.9241C171.748 24.9073 171.029 24.9241 170.452 24.9672V24.4644" fill="#00408B"/>
<path d="M190.2 24.5583C189.022 24.9021 187.804 25.0929 186.577 25.1258C182.992 25.1258 180.29 22.3912 180.29 18.5958C180.29 14.1994 183.526 12.0946 186.966 12.0946C187.747 12.0807 188.523 12.2326 189.241 12.54C189.482 12.6471 189.737 12.7212 189.998 12.7603C190.175 12.7474 190.346 12.6924 190.498 12.5999L190.738 12.6813C190.666 13.0644 190.274 14.992 190.202 15.4278L189.906 15.3488C189.815 14.5011 189.796 14.2401 189.536 13.9528C189.143 13.577 188.679 13.2821 188.171 13.0849C187.663 12.8877 187.122 12.792 186.577 12.8034C182.473 12.8034 182.473 17.4393 182.473 18.4905C182.473 24.0291 186.134 24.4361 186.853 24.4361C188.478 24.4361 189.851 23.5095 190.368 21.7686L190.791 21.8261C190.779 22.1497 190.731 22.471 190.647 22.7839C190.608 22.9228 190.421 23.6124 190.407 23.7417L190.2 24.5726" fill="#00408B"/>
<path d="M198.008 21.3108C198.008 21.7754 198.008 23.5569 198.121 23.8419C198.309 24.3088 198.881 24.4477 199.398 24.5602V25.0391C198.917 25.0176 196.609 24.9362 196.364 24.9362C195.828 24.942 195.293 24.9764 194.76 25.0391L194.59 24.5602C195.792 24.3591 195.849 24.0813 195.905 23.6694C196.126 22.0771 196.203 18.2099 196.203 16.3709C196.203 13.0496 196.037 12.8078 194.905 12.8078L194.941 12.2786C195.162 12.2458 195.385 12.233 195.609 12.2403C195.794 12.2403 196.477 12.2403 197.162 12.2594C197.847 12.2786 198.568 12.3193 198.828 12.3193H199.658V12.7982C199.492 12.8389 198.768 12.9778 198.619 13.0376C198.419 13.1191 198.328 13.2436 198.232 13.9955C198.069 15.3179 198.008 16.6507 198.047 17.9824C199.326 18.0015 202.355 18.0446 203.651 18.0446C204.058 18.0582 204.466 18.0301 204.867 17.9608C204.867 17.434 204.889 16.8689 204.889 16.0165C204.889 13.1262 204.798 12.961 203.408 12.7L203.504 12.2594C203.761 12.2786 204.038 12.3169 204.408 12.3408C204.778 12.3648 205.257 12.3791 205.87 12.3791C206.593 12.3835 207.316 12.3435 208.034 12.2594V12.724C207.589 12.7838 207.183 12.8652 207.017 13.4303C206.776 14.2445 206.759 20.25 206.759 21.5455C206.759 24.1148 206.887 24.4597 208.034 24.577L207.993 25.0559C207.221 24.9742 206.444 24.9398 205.668 24.9529C204.947 24.9529 204.281 24.996 203.504 25.0559V24.577C204.24 24.5171 204.519 24.2753 204.646 23.8107C204.867 22.9798 204.867 20.8319 204.867 19.0216C203.444 18.9402 198.309 18.9187 198.047 18.9187L198.011 21.3132" fill="#00408B"/>
<path d="M222.497 13.8141C221.87 13.2896 220.502 13.2896 219.764 13.2896C219.372 13.2674 218.98 13.2875 218.593 13.3495C218.521 15.1047 218.451 18.5505 218.451 22.0274C218.451 24.1825 218.612 24.2351 219.449 24.3956C220.115 24.5177 220.189 24.5009 220.353 24.5392L220.297 25.0469C219.999 25.0469 218.686 24.92 218.487 24.92C216.691 24.92 216.487 24.92 214.623 25.248L214.458 24.7188C214.748 24.6398 216.121 24.2567 216.268 24.0005C216.487 23.6413 216.508 19.5514 216.508 18.8857C216.508 17.0419 216.508 14.1708 216.321 13.3615C215.749 13.3129 215.175 13.2929 214.602 13.3016C212.255 13.3016 212.106 13.6704 211.813 14.4989L211.354 14.3672C211.641 13.6072 211.888 12.8327 212.094 12.0469H212.4C212.624 12.1829 212.876 12.2649 213.138 12.2863C213.876 12.3845 216.633 12.3845 217.593 12.3845C218.941 12.3845 221.639 12.363 222.79 12.3031C223.05 12.2863 223.103 12.2672 223.214 12.181L223.495 12.363C223.238 13.0462 223.065 13.7577 222.978 14.4821L222.43 14.5827L222.502 13.8141" fill="#00408B"/>
<path d="M235.121 20.611H234.693C234.47 18.875 234.47 18.7936 231.549 18.7936C231.071 18.7779 230.594 18.8181 230.125 18.9133C230.125 19.2006 230.07 21.5233 230.07 21.5808C230.072 22.3839 230.145 23.1852 230.289 23.9754C231.129 24.1586 231.985 24.2549 232.845 24.2627C235.617 24.2627 236.114 22.7063 236.355 21.9759H236.763C236.667 23.1325 236.504 23.7144 235.96 25.0673C233.508 24.9068 232.835 24.8877 231.123 24.8877C229.411 24.8877 228.628 24.9284 226.815 25.0673L226.873 24.5453C227.536 24.4064 227.906 24.3058 228.022 23.6329C228.202 22.5027 228.238 19.0043 228.238 17.6633C228.238 17.1581 228.132 14.6701 228.113 14.105C228.055 12.9916 227.873 12.8886 227.18 12.709C227.112 12.6972 227.046 12.6771 226.983 12.6491V12.3163H232.835C233.878 12.3334 234.921 12.2982 235.96 12.2109C236.021 13.6094 235.742 14.9048 235.504 14.9048C235.374 14.8927 235.246 14.8727 235.119 14.8449C235.186 14.5864 235.226 14.3216 235.239 14.0547C235.239 13.2885 234.46 12.9485 232.631 12.9485C231.849 12.9647 231.069 13.0383 230.299 13.1688C230.176 14.2099 230.115 15.2573 230.116 16.3056C230.116 16.751 230.116 17.115 230.135 18.0704C230.561 18.0872 231.169 18.1279 231.818 18.1279C233.109 18.1279 234.076 17.9866 234.222 17.9052C234.537 17.7615 234.703 16.775 234.703 16.7534H235.131V20.611" fill="#00408B"/>
<path d="M240.529 24.6219C241.322 24.3561 241.598 24.2172 241.747 23.5683C241.858 23.0247 241.913 18.3841 241.913 17.3425C241.913 14.7085 241.894 14.2918 241.839 13.8249C241.731 12.9149 240.995 12.8958 240.603 12.8671L240.678 12.3403C240.937 12.3403 242.026 12.3594 242.25 12.3594C242.474 12.3594 243.137 12.3235 243.765 12.2612C244.392 12.199 245.044 12.1367 245.26 12.1367C248.292 12.1367 249.46 13.9997 249.46 15.5178C249.46 17.036 248.385 18.25 246.924 18.7792C248.998 23.1014 250.419 24.9452 252.283 25.108V25.63C250.494 25.6731 247.905 25.6731 244.873 19.0211C244.502 19.0148 244.132 18.986 243.765 18.9349C243.748 19.3826 243.726 19.749 243.726 20.8792C243.726 21.5473 243.726 23.5707 243.967 23.9921C244.207 24.3729 244.947 24.5573 245.205 24.6004L245.13 25.0793C244.539 25.0002 244.209 24.9763 243.928 24.9595C243.647 24.9428 243.329 24.9356 242.817 24.9356C242.057 24.9291 241.297 24.9771 240.543 25.0793V24.6004L240.529 24.6219ZM244.899 12.7617C243.938 12.7617 243.938 13.0275 243.88 14.3229C243.801 16.2386 243.801 16.478 243.825 18.2476C244.103 18.3163 244.39 18.3438 244.676 18.329C245.563 18.329 247.467 18.329 247.467 15.7381C247.467 15.0198 247.135 12.7665 244.899 12.7665" fill="#00408B"/>
<path d="M60.384 12.634C60.0474 11.8534 59.23 9.20022 55.5348 9.20022C52.1858 9.20022 49.3801 12.0976 49.3801 16.9107C49.3801 21.671 52.4767 24.4368 55.8089 24.4368C57.1985 24.4368 58.2924 23.874 58.6722 23.0671C58.8574 22.6504 58.8574 21.7141 58.8574 21.2736C58.8574 17.7536 58.79 17.7536 56.2464 17.7536L56.3137 17.0065C56.9845 16.9777 59.7998 16.9514 60.4177 16.925L61.7568 16.846V17.5644C60.9297 17.7248 60.8624 17.9834 60.8624 20.8713C60.8624 23.5795 61.0451 23.704 61.4034 23.965V24.3266C60.1219 24.614 57.0759 25.1312 55.5781 25.1312C48.969 25.1312 47 20.1912 47 16.8341C47 11.0392 51.8252 8.45312 55.9315 8.45312C57.3139 8.45312 58.1698 8.73568 59.1435 8.99669C59.5233 9.09965 59.5786 9.01824 60.0763 8.47468H60.4754C60.5202 9.86027 60.6478 11.242 60.8576 12.6125H60.3768" fill="#00408B"/>
<path d="M74.4024 20.611H73.9817C73.7557 18.875 73.7557 18.7936 70.837 18.7936C70.3603 18.7776 69.8834 18.8178 69.4162 18.9133C69.4162 19.2006 69.3585 21.5233 69.3585 21.5808C69.3565 22.3841 69.4306 23.1859 69.5797 23.9754C70.4176 24.1591 71.2725 24.2554 72.1305 24.2627C74.9049 24.2627 75.4026 22.7063 75.6406 21.9759H76.0493C75.9555 23.1325 75.792 23.7144 75.2559 25.0673C72.794 24.9068 72.1305 24.8877 70.4139 24.8877C68.6973 24.8877 67.9184 24.9284 66.1008 25.0673L66.1585 24.5453C66.8245 24.4064 67.1947 24.3058 67.3029 23.6329C67.488 22.5027 67.5241 19.0043 67.5241 17.6633C67.5241 17.1581 67.4135 14.6701 67.3967 14.105C67.339 12.9916 67.1563 12.8886 66.4711 12.709C66.4012 12.699 66.3331 12.6788 66.2691 12.6491V12.3163H72.1112C73.1622 12.3338 74.2133 12.2986 75.2607 12.2109C75.316 13.6094 75.0371 14.9048 74.7919 14.9048C74.6618 14.8924 74.5326 14.8724 74.4048 14.8449C74.4742 14.5861 74.5137 14.3201 74.5226 14.0523C74.5226 13.2861 73.7413 12.9461 71.9141 12.9461C71.1331 12.9618 70.3545 13.0355 69.5845 13.1664C69.458 14.2072 69.397 15.2548 69.4017 16.3032C69.4017 16.7486 69.4018 17.1126 69.421 18.068C69.8441 18.0848 70.4548 18.1255 71.1039 18.1255C72.3997 18.1255 73.3614 17.9842 73.5081 17.9028C73.823 17.7591 73.9889 16.7726 73.9889 16.751H74.4096V20.611" fill="#00408B"/>
<path d="M81.5482 19.8875C81.5482 19.138 81.5122 15.982 81.4425 14.9691C81.3271 13.3336 81.3102 13.087 80.2404 13.0079V12.4524L83.0364 12.3925C83.7577 12.371 85.229 12.1914 85.8998 12.1914C89.8186 12.1914 92.6314 14.8254 92.6314 18.5058C92.6314 21.3362 90.8572 24.9975 85.705 24.9975C85.2386 24.9975 83.26 24.8945 82.8585 24.8945C82.5219 24.8945 81.0241 24.9137 80.7092 24.9137H80.1538V24.4252C81.3559 24.3653 81.5578 24.2815 81.5578 21.2213V19.8875H81.5482ZM85.5319 12.8667C84.8569 12.8582 84.1906 13.0188 83.5942 13.3336C83.4812 14.6051 83.4475 15.7282 83.4475 18.1227C83.4475 19.0159 83.4668 22.1264 83.5052 23.7667C84.1135 23.987 84.9838 24.3126 85.9262 24.3126C88.3785 24.3126 90.3403 22.0234 90.3403 18.5657C90.3403 14.3369 87.5346 12.8619 85.5319 12.8619" fill="#00408B"/>
<path d="M104.775 20.611H104.352C104.13 18.875 104.13 18.7936 101.212 18.7936C100.733 18.7784 100.253 18.8194 99.7837 18.9157C99.7837 19.203 99.7284 21.5257 99.7284 21.5832C99.7329 22.3864 99.8077 23.1876 99.952 23.9778C100.789 24.1614 101.643 24.2577 102.5 24.2651C105.275 24.2651 105.772 22.7087 106.008 21.9783H106.424C106.333 23.1349 106.164 23.7168 105.631 25.0697C103.176 24.9092 102.505 24.8901 100.779 24.8901C99.0528 24.8901 98.2859 24.9308 96.4731 25.0697L96.5308 24.5477C97.1944 24.4088 97.567 24.3082 97.6728 23.6353C97.8652 22.5051 97.8988 19.0067 97.8988 17.6657C97.8988 17.1605 97.7858 14.6725 97.7738 14.1074C97.7185 12.994 97.5334 12.891 96.8482 12.7114C96.7768 12.7011 96.7072 12.681 96.6414 12.6515V12.3163H102.484C103.533 12.3336 104.582 12.2984 105.628 12.2109C105.679 13.6094 105.402 14.9048 105.159 14.9048C105.03 14.8921 104.902 14.8721 104.775 14.8449C104.84 14.5855 104.877 14.3198 104.885 14.0523C104.885 13.2861 104.104 12.9461 102.274 12.9461C101.494 12.9622 100.716 13.0358 99.9472 13.1664C99.8243 14.2075 99.7632 15.2549 99.7645 16.3032C99.7645 16.7486 99.7645 17.1126 99.7813 18.068C100.204 18.0848 100.82 18.1255 101.464 18.1255C102.758 18.1255 103.717 17.9842 103.868 17.9028C104.186 17.7591 104.349 16.7726 104.349 16.751H104.777V20.611" fill="#00408B"/>
<path d="M116.548 12.1352C119.925 12.1352 122.649 15.0087 122.649 18.6915C122.649 22.0965 120.207 25.2885 116.435 25.2885C112.533 25.2885 110.222 22.1301 110.222 18.5981C110.222 14.6471 113.324 12.1328 116.548 12.1328V12.1352ZM116.841 24.5581C118.021 24.5581 120.5 23.7727 120.5 20.0276C120.5 17.3936 119.341 12.923 116.026 12.923C115.139 12.923 112.391 13.3684 112.391 17.4966C112.391 20.8322 113.845 24.5581 116.843 24.5581" fill="#00408B"/>
<path d="M137.589 21.4635C137.589 20.8337 137.647 17.9818 137.647 17.4143C137.647 13.1041 137.498 12.903 135.76 12.721L135.923 12.278C136.075 12.253 136.228 12.2402 136.382 12.2397C136.541 12.2397 136.938 12.2588 137.37 12.2971C137.705 12.3425 138.042 12.3689 138.38 12.3762C138.474 12.3762 139.657 12.3546 139.9 12.3546V12.8623C139.64 12.8431 139.121 12.8431 138.902 13.3076C138.556 14.026 138.534 17.4766 138.517 18.5469C138.517 19.2365 138.452 22.2513 138.452 22.8571C138.452 23.0798 138.493 23.9035 138.517 24.4782L138.553 25.2445H137.993C137.37 23.949 136.382 22.8954 135.409 21.8921L129.728 15.9153C129.492 15.6445 129.239 15.3893 128.97 15.1514C128.956 15.5561 128.917 16.4852 128.917 16.8923L128.848 21.5617C128.807 23.439 128.821 24.1693 130.874 24.5165C130.912 24.6966 130.912 24.8825 130.874 25.0625C130.634 25.0433 130.415 25.0026 130.136 24.9619C129.857 24.9212 129.566 24.9164 129.124 24.9164C128.682 24.9164 126.92 25.0433 126.554 25.0625C126.534 24.881 126.534 24.698 126.554 24.5165C127.72 24.4974 127.848 23.7982 127.864 22.0645L127.958 16.1404C127.977 14.4642 127.977 13.0849 126.405 12.8215C126.381 12.6187 126.381 12.4137 126.405 12.2109C126.496 12.2109 126.886 12.2588 127.271 12.2756C127.655 12.2924 128.061 12.3139 128.215 12.3139H129.088C130.225 13.7506 130.302 13.7961 133.416 17.0838C134.286 17.9986 135.135 18.9109 136.005 19.816L137.594 21.4587" fill="#00408B"/>
</svg>
