<svg width="214" height="24" viewBox="0 0 214 24" fill="none" xmlns="http://www.w3.org/2000/svg">
<path fill-rule="evenodd" clip-rule="evenodd" d="M14.6707 12.3021H10.7108V10.6769H14.6707V12.3021ZM17.8071 4.60353C17.8071 4.60353 14.7484 4.26608 14.6403 7.91849H21.7851V9.32791H10.7293L10.7005 4.29978C10.7005 4.29978 10.7646 1.42997 14.6317 1.4571C17.6867 1.47724 21.8188 1.46039 23.4077 1.46039C22.4239 0.556533 21.1143 0 19.672 0H5.67539C2.5444 0 0 2.61703 0 5.8543V17.4211C0 17.8662 0.0521705 18.2912 0.146651 18.7027L7.54076 18.6451C7.54076 18.6451 10.5958 18.9756 10.7005 15.3335H3.56437V13.9138H14.6149L14.6403 18.9386C14.6403 18.9386 14.5898 21.8183 10.7174 21.7846C7.27991 21.7509 2.96586 21.8014 1.94629 21.8084H1.93644C2.92889 22.7156 4.24175 23.2651 5.6758 23.2651H19.6724C22.8084 23.2651 25.3446 20.6415 25.3446 17.4211V5.85471C25.3446 5.39271 25.2957 4.96442 25.2 4.54311L17.8071 4.60353Z" fill="#007456"/>
<path d="M43.5747 4.53711L38.8515 11.1169L34.169 4.53711H29.9141L37.1821 13.9078V18.6745H40.5616V13.9078L47.8296 4.53711H43.5747ZM48.705 4.53711V13.6431C48.7017 15.3509 49.1256 16.6173 49.9842 17.4422C50.8427 18.2671 52.1593 18.6782 53.9371 18.6745H60.1465C61.056 18.6778 61.8328 18.5898 62.4744 18.4131C63.1157 18.233 63.6382 17.9478 64.0387 17.5577C64.4392 17.1639 64.7342 16.6444 64.9207 16.0028C65.1076 15.3579 65.1992 14.5732 65.1955 13.6431V4.53711H61.816V13.2966C61.816 13.9382 61.7276 14.4474 61.5481 14.8211C61.3719 15.198 61.0967 15.466 60.734 15.6292C60.3708 15.7886 59.9095 15.8667 59.3529 15.8634H54.6905C54.0867 15.8667 53.5945 15.7923 53.2113 15.6394C52.8243 15.4832 52.5396 15.2185 52.3564 14.8449C52.1732 14.4746 52.0849 13.9657 52.0849 13.3171V4.53711H48.705ZM88.8936 8.61124H85.5141V18.6745H88.8936V8.61124ZM85.5141 4.53711V7.34855H88.8936V4.53711H85.5141ZM94.2683 18.6745L96.1004 15.1096H104.468L106.28 18.6745H110.25L102.819 4.53711H97.8105L90.3186 18.6745H94.2683ZM97.4646 12.4412L100.254 7.18537H100.417L103.104 12.4412H97.4646Z" fill="#007456"/>
<path d="M122.935 14.499H129.225C130.383 14.5023 131.322 14.3358 132.045 13.9967C132.768 13.6572 133.3 13.1171 133.64 12.3806C133.979 11.644 134.149 10.6797 134.152 9.48774C134.155 8.30315 133.993 7.34874 133.656 6.61875C133.32 5.89205 132.788 5.35895 132.055 5.02971C131.325 4.69678 130.369 4.53072 129.184 4.5373H119.555V18.6747H122.934V14.499H122.935ZM122.935 11.688V7.34915H128.574C129.015 7.34915 129.378 7.39642 129.667 7.48808C129.952 7.57974 130.176 7.71908 130.338 7.89911C130.501 8.07914 130.613 8.30315 130.677 8.56785C130.745 8.83626 130.776 9.14165 130.772 9.48774C130.779 9.99701 130.715 10.4113 130.583 10.7373C130.454 11.0632 130.226 11.3008 129.904 11.457C129.582 11.6132 129.14 11.688 128.574 11.688H122.935ZM139.161 4.53771H135.781V18.6751H139.161V12.7678H147.895V18.6755H151.274V4.53771H147.895V9.95631H139.161V4.53771ZM156.405 18.6755L158.237 15.1106H166.605L168.417 18.6755H172.387L164.956 4.53812H159.948L152.456 18.6755H156.405ZM159.601 12.4418L162.39 7.18597H162.554L165.241 12.4418H159.601ZM191.849 4.53771V18.6751H195.229V7.34915H195.677L200.522 18.6755H205.327L210.172 7.34915H210.62V18.6755H214V4.53771H207.709L203.026 15.864H202.823L198.141 4.53771H191.849Z" fill="#007456"/>
<path fill-rule="evenodd" clip-rule="evenodd" d="M115.258 9.85156H111.783V13.3609H115.258V9.85156Z" fill="#007456"/>
<path fill-rule="evenodd" clip-rule="evenodd" d="M173.869 18.6692V4.54297H184.604C187.548 4.54297 189.638 5.49163 189.638 9.51068C189.638 11.6657 188.133 13.3768 186.519 13.7389L190.66 18.6692H186.252L182.874 14.1898H177.252V18.6692H173.869ZM177.252 11.5264H184.217C185.651 11.5264 186.252 10.8658 186.252 9.36805C186.252 7.87396 185.832 7.20973 184.323 7.20973H177.252V11.5264H177.252Z" fill="#007456"/>
<path fill-rule="evenodd" clip-rule="evenodd" d="M67.3047 18.6692V4.54297H78.0393C80.9834 4.54297 83.0735 5.49163 83.0735 9.51068C83.0735 11.6657 81.5683 13.3768 79.9548 13.7389L84.0959 18.6692H79.6878L76.3091 14.1898H70.6871V18.6692H67.3047ZM70.6871 11.5264H77.6523C79.0856 11.5264 79.6874 10.8658 79.6874 9.36805C79.6874 7.87396 79.2667 7.20973 77.7583 7.20973H70.6867V11.5264H70.6871Z" fill="#007456"/>
</svg>
